# xmcd
#
# Track frame offsets:
#	150
#	11480
#	22877
#	35542
#	45965
#	55817
#	67307
#	78862
#	90640
#	102700
#	113420
#	124897
#	135577
#	147445
#	158552
#	170812
#
# Disc length: 2398 seconds
#
# Revision: 0
# Processed by: cddbd v1.5.2PL0 Copyright (c) Steve Scherf et al.
# Submitted via: VUPlayer 2.49
#
DISCID=d0095c10
DTITLE=Kitty Wells - Country Gold
DYEAR=1995
DGENRE=Country
TTITLE0=Heartbreak USA
TTITLE1=It Wasn't God Who Made Honky Tonk Angels
TTITLE2=Makin' Believe
TTITLE3=Searching =for Someone Like You=
TTITLE4=I Can't Stop Loving You
TTITLE5=Password
TTITLE6=You Don't Hear
TTITLE7=Amigo's Guitar
TTITLE8=Playing for That Backstreet Affair
TTITLE9=Mommy for A Day
TTITLE10=Left To Right
TTITLE11=Unloved, Unwanted
TTITLE12=We Missed You
TTITLE13=Will Your Lawyer Talk To God
TTITLE14=This White Circle  On My Finger
TTITLE15=I'll Resposses My Heart
EXTD=
EXTT0=
EXTT1=
EXTT2=
EXTT3=
EXTT4=
EXTT5=
EXTT6=
EXTT7=
EXTT8=
EXTT9=
EXTT10=
EXTT11=
EXTT12=
EXTT13=
EXTT14=
EXTT15=
PLAYORDER=
